<?xml version="1.0" encoding="UTF-8"?>
<svg width="42px" height="33px" viewBox="0 0 42 33" version="1.1" xmlns="http://www.w3.org/2000/svg" xmlns:xlink="http://www.w3.org/1999/xlink">
    <!-- Generator: Sketch 44.1 (41455) - http://www.bohemiancoding.com/sketch -->
    <title>maimai</title>
    <desc>Created with Sketch.</desc>
    <defs></defs>
    <g id="Page-1" stroke="none" stroke-width="1" fill="none" fill-rule="evenodd">
        <g id="首页01" transform="translate(-1088.000000, -2289.000000)" fill="#5AB2FF">
            <path d="M1098.76323,2296.01112 L1106.03806,2290.48056 C1108.03751,2288.99161 1110.6752,2288.60867 1112.97254,2289.5021 L1124.54409,2293.92651 C1125.30989,2294.22434 1126.11815,2294.35196 1126.88395,2294.35196 L1128.79836,2294.35196 C1129.35143,2294.35196 1129.81934,2294.77741 1129.81934,2295.33042 L1129.81934,2309.53973 C1129.81934,2310.09281 1129.35143,2310.56078 1128.79836,2310.56078 L1126.28836,2310.56078 C1125.94807,2310.56078 1125.56514,2310.6884 1125.30989,2310.90113 L1124.75682,2311.36904 C1124.62919,2311.49666 1124.41647,2311.45421 1124.28884,2311.32658 L1110.80282,2294.90497 C1110.46247,2294.47958 1109.86687,2294.39448 1109.3989,2294.64973 L1103.23023,2298.09567 C1101.99652,2298.77644 1100.5075,2298.86148 1099.18868,2298.3084 C1098.50798,2298.01064 1098.16764,2297.20231 1098.4654,2296.4791 C1098.4654,2296.30889 1098.59309,2296.13875 1098.76323,2296.01112 Z M1089.23371,2310.51813 L1091.40343,2310.51813 L1092.9349,2308.64624 C1094.2963,2306.98708 1096.76372,2306.77435 1098.42288,2308.13575 C1099.01848,2308.64624 1099.48645,2309.32694 1099.69917,2310.09268 C1101.01799,2310.43303 1102.03904,2311.45408 1102.4219,2312.77289 C1103.35785,2313.07072 1104.20869,2313.66631 1104.67673,2314.55967 C1105.48498,2314.6873 1106.25079,2315.07017 1106.84638,2315.66576 C1108.08009,2316.98457 1108.33534,2318.94157 1107.39946,2320.51569 L1107.18666,2320.89856 L1107.18666,2320.94108 C1108.20771,2321.62178 1109.56911,2321.40905 1110.29233,2320.388 C1110.63268,2319.87751 1110.7603,2319.28191 1110.63268,2318.68632 L1110.63268,2318.6438 L1110.6752,2318.6438 L1110.8454,2318.81394 C1111.61114,2319.57968 1112.84485,2319.70737 1113.73828,2319.11171 C1114.46149,2318.60122 1114.80184,2317.70786 1114.63164,2316.85702 L1114.63164,2316.81443 L1114.67422,2316.81443 L1114.84436,2316.98457 C1115.61016,2317.75038 1116.80135,2317.878 1117.7373,2317.2824 C1118.46052,2316.77191 1118.84345,2315.87849 1118.67318,2315.02765 L1118.67318,2314.98506 L1118.71576,2314.98506 L1118.8859,2315.15527 C1119.60919,2315.87849 1120.75779,2316.00617 1121.6087,2315.49562 C1122.67227,2314.85744 1123.01262,2313.49611 1122.37444,2312.43254 C1122.28933,2312.30492 1122.20429,2312.17729 1122.11919,2312.09219 L1120.75779,2310.43303 L1109.73925,2297.03204 C1109.61163,2296.90448 1109.44149,2296.86196 1109.27134,2296.947 L1103.99596,2299.88246 C1102.29428,2300.8184 1100.29477,2300.98855 1098.4654,2300.30791 C1097.44442,2299.9675 1096.67868,2299.15918 1096.29575,2298.18078 C1095.99798,2297.15973 1096.1256,2296.05364 1096.67868,2295.16022 C1096.8063,2294.90491 1096.72126,2294.60714 1096.46595,2294.47952 C1096.38085,2294.437 1096.29575,2294.437 1096.21071,2294.437 L1089.02098,2294.437 C1088.46791,2294.437 1088,2294.86239 1088,2295.41546 L1088,2309.58219 C1088.21266,2310.09268 1088.68063,2310.51813 1089.23371,2310.51813 Z M1096.89134,2309.49715 C1096.0405,2309.02918 1095.01945,2309.2419 1094.42386,2310.00764 L1092.9349,2311.83701 C1092.29672,2312.64533 1092.38183,2313.83646 1093.19015,2314.47464 L1093.23273,2314.47464 L1093.44539,2314.64478 C1094.04105,2315.11275 1094.89189,2315.15527 1095.52994,2314.81498 C1095.57253,2314.7724 1095.61511,2314.81498 1095.65763,2314.85757 L1095.65763,2314.94261 C1095.53001,2315.62331 1095.78526,2316.34652 1096.33827,2316.77191 L1096.50847,2316.8996 C1097.10407,2317.36757 1097.86987,2317.41009 1098.55057,2317.11233 C1098.59309,2317.06974 1098.67813,2317.11233 1098.67813,2317.15485 L1098.67813,2317.19743 C1098.59309,2317.83548 1098.89085,2318.47366 1099.40141,2318.89905 L1099.52897,2318.98421 C1100.12463,2319.45212 1100.89036,2319.53729 1101.57106,2319.15429 C1101.61365,2319.11177 1101.69869,2319.15429 1101.69869,2319.19688 L1101.69869,2319.23946 C1101.78502,2319.71191 1102.04254,2320.136 1102.4219,2320.43059 L1102.50701,2320.47317 C1103.35785,2321.11135 1104.54904,2320.98366 1105.18722,2320.13282 C1105.2298,2320.04778 1105.31484,2319.96261 1105.35736,2319.92009 L1105.61261,2319.45212 C1106.08058,2318.6438 1105.95296,2317.66534 1105.27226,2317.02716 C1104.71918,2316.51667 1103.91092,2316.38904 1103.18771,2316.68687 C1103.14512,2316.68687 1103.14512,2316.68687 1103.1026,2316.64429 L1103.1026,2316.60177 C1103.14519,2315.58079 1102.33687,2314.68736 1101.31582,2314.60226 C1101.06057,2314.60226 1100.80533,2314.64484 1100.55002,2314.72995 C1100.25225,2314.77247 1100.33729,2314.51722 1100.33729,2314.51722 C1100.72022,2313.53869 1100.29477,2312.47512 1099.31631,2312.04974 C1098.80581,2311.83701 1098.16764,2311.87953 1097.69966,2312.13477 C1097.487,2312.17736 1097.52952,2311.96463 1097.52952,2311.96463 C1098.0826,2311.15631 1097.78477,2310.00764 1096.89134,2309.49715 L1096.89134,2309.49715 Z" id="maimai"></path>
        </g>
    </g>
</svg>