<?xml version="1.0" encoding="UTF-8"?>
<svg width="44px" height="44px" viewBox="0 0 44 44" version="1.1" xmlns="http://www.w3.org/2000/svg" xmlns:xlink="http://www.w3.org/1999/xlink">
    <!-- Generator: Sketch 44.1 (41455) - http://www.bohemiancoding.com/sketch -->
    <title>anquan</title>
    <desc>Created with Sketch.</desc>
    <defs></defs>
    <g id="Page-1" stroke="none" stroke-width="1" fill="none" fill-rule="evenodd">
        <g id="首页01" transform="translate(-491.000000, -2282.000000)" fill="#5AB2FF">
            <g id="anquan" transform="translate(491.000000, 2282.923754)">
                <path d="M16.6941073,22.6910709 L16.6936235,22.3410842 L16.6771752,22.3373016 L16.6933816,22.001605 L16.6931397,21.4488555 L16.7199893,21.4549798 C16.8542973,18.8226047 17.3727831,17.1643561 17.3947949,17.0943468 L17.6816735,16.1906499 L18.6032043,16.4372437 C18.6369477,16.44619 21.9941647,17.3342758 24.7632927,17.3534894 C24.803446,17.2254792 24.8432365,17.0944068 24.8833898,16.9592516 C25.1278171,16.8784346 25.3721235,16.7301301 25.6164299,16.514338 C25.8067349,16.3257451 25.996677,16.0628198 26.1866796,15.7259224 C26.3769242,15.389025 26.4988959,14.9375068 26.5532601,14.3714279 C26.6076244,13.9399638 26.600791,13.5759873 26.5328207,13.2796184 C26.4651526,12.9827692 26.3769242,12.7401383 26.2680748,12.5517255 C26.1595882,12.3357533 26.0101623,12.1740593 25.8200387,12.0662834 C25.8200387,11.0149425 25.7523707,9.95021213 25.6164299,8.87179214 C25.4809729,7.95512615 25.2498494,6.98496245 24.9240269,5.9602203 C24.5982649,4.93577835 24.0825003,3.9922134 23.3764912,3.12952544 C23.0778206,2.75227959 22.6907402,2.37485361 22.2157941,1.99736759 C21.7406666,1.61988157 21.1909772,1.28322432 20.5661818,0.98637512 C19.9418702,0.690006262 19.2699068,0.453859845 18.5503519,0.27877646 C17.8308576,0.103633032 17.077378,0.0158511707 16.2899738,0.0158511707 C15.6925117,0.0158511707 15.0613667,0.0630444288 14.3961761,0.15731086 C13.7308646,0.251937546 13.0723258,0.433625585 12.4208019,0.703335656 C11.769157,0.972865599 11.1311182,1.34374697 10.5065647,1.81525925 C9.88231358,2.28713179 9.31194286,2.9005841 8.79617825,3.65549611 C8.25308036,4.43712694 7.83915038,5.30641955 7.5540255,6.26367415 C7.2691425,7.22074862 7.07194372,8.13056979 6.96345718,8.99301757 C6.82763735,9.99056056 6.77351503,11.001553 6.80060643,12.025995 C6.58327051,12.2955249 6.42041976,12.5784443 6.31181227,12.8752335 C6.20332573,13.1447034 6.1285825,13.4616067 6.08770351,13.8255231 C6.04712688,14.1895597 6.0945973,14.6004292 6.2304776,15.0587923 C6.36623696,15.5170952 6.52225439,15.8675622 6.69871132,16.1101332 C6.87510778,16.3527641 7.0449128,16.5416573 7.20782402,16.6762721 C7.39782665,16.8110671 7.58801069,16.9056338 7.77795285,16.9593716 C7.91377268,17.3908957 8.04929014,17.8086702 8.18523092,18.2129951 C8.32105074,18.5634621 8.47041627,18.9071443 8.6333275,19.2441017 C8.79623873,19.5812393 8.98642277,19.8441046 9.20345632,20.0325774 C9.66485672,20.3831044 10.0858619,20.7337515 10.4659881,21.0840384 C10.8461748,21.4344453 11.0634502,21.9196472 11.1175725,22.5399444 C11.1449058,22.9712884 11.1582096,23.3622239 11.1582096,23.7124507 C11.1582096,24.0629777 11.0905416,24.4001153 10.9547218,24.7235032 C10.818902,25.0470712 10.6018684,25.3637344 10.3031978,25.6736728 C10.0044668,25.9836713 9.57009729,26.3140841 8.99996847,26.664431 C8.29395934,27.1226739 7.47256989,27.473201 6.53580009,27.7156518 C5.5990303,27.9583428 4.69642712,28.2280529 3.82732535,28.524722 C2.95870736,28.821331 2.1915007,29.2255959 1.52637056,29.7376968 C0.861179951,30.2498577 0.447129033,30.9913803 0.284217806,31.9617241 C0.0399114365,33.6871601 -0.00761945607,35.1024775 0.141746072,36.2079165 C0.291111599,37.3131154 0.501493247,37.9736408 0.772951488,38.1893729 C0.935862715,38.3241679 1.31604938,38.4724123 1.91345102,38.6342864 C2.51067125,38.7960404 3.23705939,38.9576743 4.09219215,39.1193683 C4.94750633,39.2812423 5.89782183,39.4428762 6.94338052,39.6046302 C7.98845544,39.7665043 9.04749936,39.907964 10.1199076,40.0292495 C11.1925577,40.1504749 12.2309807,40.2516462 13.2354185,40.3325832 C14.2400982,40.4134602 15.1361099,40.4539288 15.9236956,40.4539288 C16.7109185,40.4539288 17.6341426,40.4203051 18.6929446,40.3528775 C19.7518071,40.2852699 20.8515486,40.1842787 21.9920481,40.0494837 C22.4522996,39.9952055 22.9124301,39.9364241 23.3729838,39.8754211 C23.2955798,39.8122566 23.2185992,39.7488519 23.1421022,39.6852671 C20.2039553,37.2389631 16.7011825,32.3056465 16.6941073,22.6910709" id="Fill-1"></path>
                <path d="M36.9665168,24.0957008 C34.3572159,24.0957008 31.7068546,23.2177621 30.9902025,22.9580791 C30.284798,23.2207041 27.7197021,24.0957008 25.0635355,24.0957008 C22.5659262,24.0957008 19.7188499,23.4976793 18.7227572,23.2702991 C18.7285021,30.9605786 21.1672723,35.8238859 24.4612357,38.5661984 C26.4416895,40.211658 29.6589142,42.5105581 30.9842157,42.5105581 C32.3154436,42.5105581 35.5561917,40.2085358 37.5484376,38.5487261 C40.8479644,35.8034114 43.2987081,30.9605185 43.3045134,23.270239 C42.2994104,23.4949174 39.4170185,24.0957008 36.9665168,24.0957008 Z M34.1694507,35.9462521 L31.0134841,34.0239374 L27.8518936,35.9462521 L28.9331307,32.49514 L26.2652326,30.0062661 L29.7296058,30.0062661 L31.0162658,26.8292472 L32.2945203,30.0062661 L35.7619775,30.0062661 L33.0906325,32.49514 L34.1694507,35.9462521 L34.1694507,35.9462521 Z" id="Fill-2"></path>
                <path d="M30.7931246,21.9194671 L30.9755078,21.8465758 L31.1662965,21.916465 C31.1929042,21.9282933 34.1694507,23.0542668 36.9665168,23.0542668 C39.4788208,23.0542668 42.5846562,22.3657616 43.2837715,22.2051484 C43.163493,19.8161849 42.6932032,18.2756793 42.6932032,18.2756793 C42.6932032,18.2756793 39.2905113,19.1714505 36.5638346,19.1714505 C33.8313525,19.1714505 30.9841553,18.0013459 30.9841553,18.0013459 C30.9841553,18.0013459 28.2574785,19.1740924 25.4719626,19.1740924 C22.6865676,19.1740924 19.3395704,18.2785613 19.3395704,18.2785613 C19.3395704,18.2785613 18.8609355,19.7868842 18.7434386,22.2083907 C19.4308829,22.3687037 22.495537,23.0543269 25.0635355,23.0543269 C27.9195012,23.0542668 30.7638562,21.9311754 30.7931246,21.9194671" id="Fill-3"></path>
            </g>
        </g>
    </g>
</svg>