<?xml version="1.0" encoding="UTF-8"?>
<svg width="38px" height="39px" viewBox="0 0 38 39" version="1.1" xmlns="http://www.w3.org/2000/svg" xmlns:xlink="http://www.w3.org/1999/xlink">
    <!-- Generator: Sketch 44.1 (41455) - http://www.bohemiancoding.com/sketch -->
    <title>chengxin</title>
    <desc>Created with Sketch.</desc>
    <defs></defs>
    <g id="Page-1" stroke="none" stroke-width="1" fill="none" fill-rule="evenodd">
        <g id="首页01" transform="translate(-792.000000, -2285.000000)" fill="#5AB2FF">
            <path d="M828.536631,2292.76309 L824.583147,2292.76309 L824.583147,2287.37891 C824.583147,2286.56757 823.941296,2285.92375 823.111459,2285.92375 L798.876644,2285.92375 C798.068231,2285.92375 797.413879,2286.56818 797.413879,2287.37891 L797.413879,2292.76309 L793.452076,2292.76309 C792.653144,2292.76309 792,2293.41767 792,2294.21825 L792,2302.30768 C792,2304.62601 792.933939,2306.75656 794.458002,2308.29699 L794.468691,2308.29699 C795.807138,2309.63585 797.59113,2310.5509 799.582163,2310.76849 C801.782561,2314.18015 805.464174,2316.52828 809.541976,2316.96583 L809.541976,2320.63559 L803.182865,2320.63559 C802.383979,2320.63559 801.719496,2321.29012 801.719496,2322.10146 C801.719496,2322.89072 802.383979,2323.56732 803.182865,2323.56732 L818.816531,2323.56732 C819.614859,2323.56732 820.289427,2322.89072 820.289427,2322.10146 C820.289427,2321.29012 819.614859,2320.63559 818.816531,2320.63559 L812.466947,2320.63559 L812.466947,2316.96643 C816.534618,2316.52889 820.229336,2314.18015 822.426155,2310.76909 C824.366625,2310.55151 826.120269,2309.66747 827.449236,2308.36731 L827.531309,2308.29754 C829.055372,2306.75716 830,2304.62601 830,2302.30829 L830,2294.21885 C830,2293.41823 829.346856,2292.76309 828.536631,2292.76309 L828.536631,2292.76309 Z M794.926133,2296.89188 C794.958247,2295.65966 796.171215,2295.6877 796.171215,2295.6877 L797.413879,2295.68472 L797.413879,2303.65852 C797.445388,2304.89608 797.631609,2306.10142 797.974819,2307.29605 C797.435303,2307.02724 796.958807,2306.66239 796.55309,2306.23676 C795.536475,2305.19713 794.923763,2303.83554 794.923763,2302.30708 C794.924972,2302.30768 794.847639,2299.94106 794.926133,2296.89188 L794.926133,2296.89188 Z M816.998009,2299.96193 L813.806556,2302.27611 L815.03737,2306.0454 C815.137893,2306.33275 814.975467,2306.6439 814.688769,2306.73569 C814.510914,2306.79177 814.317583,2306.75539 814.177789,2306.6439 L811.001208,2304.32199 L807.80139,2306.65582 C807.56047,2306.83764 807.216052,2306.77924 807.038197,2306.54316 C806.933491,2306.39176 806.902586,2306.20873 806.963838,2306.046 L808.195814,2302.27667 L804.980567,2299.94702 C804.74025,2299.76819 804.68253,2299.42718 804.865172,2299.18994 C804.965091,2299.03854 805.135232,2298.96104 805.306534,2298.96104 L809.261785,2298.96463 L810.478284,2295.19115 C810.575275,2294.91152 810.88521,2294.74461 811.171907,2294.83822 C811.342048,2294.89606 811.466969,2295.03196 811.520507,2295.19115 L812.737007,2298.96463 L816.695836,2298.96104 C816.998613,2298.96104 817.241904,2299.20126 817.241904,2299.50412 C817.241346,2299.69367 817.144959,2299.86119 816.998009,2299.96193 L816.998009,2299.96193 Z M827.075028,2302.30768 L827.075028,2302.30768 C827.075028,2303.83614 826.451628,2305.19829 825.455833,2306.23737 L825.393976,2306.29936 C824.978732,2306.69517 824.522498,2307.0481 824.023973,2307.29726 C824.376152,2306.10263 824.552799,2304.89725 824.582542,2303.65968 L824.582542,2295.68532 L826.059621,2295.69487 C826.059621,2295.69487 827.048864,2295.62213 827.076237,2296.70587 C827.096453,2297.5363 827.075028,2302.30768 827.075028,2302.30768 Z" id="chengxin"></path>
        </g>
    </g>
</svg>