<?xml version="1.0" encoding="UTF-8"?>
<svg width="36px" height="37px" viewBox="0 0 36 37" version="1.1" xmlns="http://www.w3.org/2000/svg" xmlns:xlink="http://www.w3.org/1999/xlink">
    <!-- Generator: Sketch 44.1 (41455) - http://www.bohemiancoding.com/sketch -->
    <title>gaoxiao</title>
    <desc>Created with Sketch.</desc>
    <defs></defs>
    <g id="Page-1" stroke="none" stroke-width="1" fill="none" fill-rule="evenodd">
        <g id="首页01" transform="translate(-1389.000000, -2286.000000)">
            <g id="gaoxiao" transform="translate(1389.000000, 2286.923754)">
                <path d="M35.982508,2.99243415 C35.9132908,6.29367805 35.1521227,9.52608293 33.975784,12.6209854 C32.5226209,16.3348244 30.4467239,19.5672732 27.4712687,22.2494927 C27.2636613,22.4558341 27.1252712,22.7309268 27.1944442,23.0060195 C27.2636613,23.9688878 27.4020515,25.0005073 27.4712687,25.9633756 C27.6788319,28.3017073 26.9176638,30.1586488 24.9801571,31.5341561 C22.9734331,32.9784146 20.828319,34.2851707 18.7524221,35.660678 C17.4376933,36.4859561 15.8461399,35.7294293 15.7077497,34.2163756 L15.2925791,28.8519366 C15.223362,27.9578634 15.223362,27.9578634 14.3929767,27.8202732 C12.1095166,27.5451805 10.3103558,26.4448098 9.0648,24.450322 C8.44206626,23.4187024 8.09606871,22.3182878 8.02685153,21.149122 C8.02685153,20.8052341 7.81928834,20.736439 7.5424638,20.6676878 C5.67417423,20.5988927 3.80584049,20.4613463 1.93750675,20.3238 C0.276780368,20.2550049 -0.48438773,18.6044049 0.345997546,17.2288976 C0.899558282,16.2660732 1.5223362,15.372 2.14511411,14.4091317 C2.76789202,13.3775122 3.45984294,12.4146439 4.08262086,11.3830244 C5.25895951,9.52608293 6.98890307,8.49446341 9.20323436,8.49446341 C10.448746,8.49446341 11.6943018,8.70080488 13.0090748,8.83835122 C13.216638,8.83835122 13.4242454,8.83835122 13.5626356,8.63200976 C16.4689178,5.39960488 20.0671509,3.19877561 24.218989,1.75451707 C26.5024933,0.929195122 28.9243877,0.379009756 31.3462822,0.103917073 C32.5226209,0.0351219512 33.7681767,-0.0336731707 35.0137325,0.172668293 C35.7057276,0.310214634 35.7057276,0.310214634 35.8441178,0.997990244 C35.9132908,1.61697073 35.982508,2.30470244 35.982508,2.99243415" id="Fill-1" fill="#5AB2FF"></path>
                <path d="M29.0845432,11.1765185 C29.139625,8.93116778 27.2110952,6.95961648 25.0070863,6.95961648 C22.6928435,6.90487059 20.6540799,8.60258755 20.5989982,11.2312993 C20.5438812,13.4219041 22.5275279,15.3934204 24.7866538,15.3934204 C27.1008965,15.3934204 29.0294263,13.5314308 29.0845432,11.1765185 Z" id="Fill-2" fill="#FFFFFF"></path>
                <path d="M5.1897865,23.1435659 C5.74334724,23.1435659 6.02012761,23.4187024 6.22773497,23.9688878 C6.98890307,26.1696732 8.44206626,27.8202732 10.448746,28.9894829 C10.9331337,29.2645756 11.3483043,29.4709171 11.9019092,29.6084634 C12.8014675,29.8835561 13.0090748,30.7776293 12.3170798,31.3966098 L9.41079755,34.2851707 C9.0648,34.6290146 8.71884663,34.7666049 8.3036319,34.5602634 C7.81928834,34.4227171 7.61168098,34.0788293 7.61168098,33.5973951 L7.61168098,32.703322 C7.61168098,32.1531366 7.61168098,32.1531366 7.05812025,32.2906829 C5.9509546,32.703322 4.84378896,33.0472098 3.80584049,33.4598488 C3.45984294,33.5973951 3.18306258,33.5973951 2.83706503,33.4598488 C2.35272147,33.1847561 2.21433129,32.703322 2.35272147,32.1531366 C2.69867485,30.9839707 3.11388957,29.8835561 3.45984294,28.7831415 C3.59823313,28.3017073 3.59823313,28.3017073 3.11388957,28.3017073 L2.14511411,28.3017073 C1.66072638,28.3017073 1.38394601,28.0266146 1.17633865,27.6139756 C1.03794847,27.2013366 1.10716564,26.8574488 1.45311902,26.513561 C2.49111166,25.4819415 3.45984294,24.450322 4.49779141,23.4187024 C4.70539877,23.212361 4.91300613,23.1435659 5.1897865,23.1435659 L5.1897865,23.1435659 Z" id="Path" fill="#5AB2FF"></path>
            </g>
        </g>
    </g>
</svg>